<svg xmlns="http://www.w3.org/2000/svg" viewBox="0 0 640 480" role="img" aria-labelledby="title desc">
  <title id="title">Black Rose Tattoo Flash</title>
  <desc id="desc">Fine line black rose tattoo flash design on a dark background.</desc>
  <rect width="640" height="480" fill="#09090b"/>
  <circle cx="320" cy="222" r="150" fill="#111116" stroke="#2f2f38" stroke-width="4"/>
  <g fill="none" stroke="#f4f4f5" stroke-linecap="round" stroke-linejoin="round">
    <path d="M320 354c-4-54 10-104 40-151" stroke-width="8"/>
    <path d="M356 276c44 6 77-8 103-44-47-6-82 8-103 44Z" stroke-width="6"/>
    <path d="M318 309c-43-4-75 13-99 49 47 4 80-12 99-49Z" stroke-width="6"/>
    <path d="M325 173c-42-10-77 8-101 49 49 9 83-8 101-49Z" stroke-width="6"/>
    <path d="M353 172c37-23 77-21 119 4-41 29-81 28-119-4Z" stroke-width="6"/>
  </g>
  <g fill="#e11d48" stroke="#f4f4f5" stroke-width="5" stroke-linejoin="round">
    <path d="M323 86c38 14 65 43 74 82-35-14-59-42-74-82Z"/>
    <path d="M285 99c33 3 63 24 81 58-39-3-65-22-81-58Z"/>
    <path d="M253 137c31-11 67-3 96 22-37 15-69 8-96-22Z"/>
    <path d="M260 187c18-29 50-45 89-42-22 34-51 48-89 42Z"/>
    <path d="M306 226c-8-36 5-70 37-97 12 41-1 73-37 97Z"/>
  </g>
  <path d="M321 126c30 13 46 40 38 67-31-10-47-36-38-67Z" fill="#7f1d1d" stroke="#f4f4f5" stroke-width="4"/>
</svg>
