<svg xmlns="http://www.w3.org/2000/svg" viewBox="0 0 640 480" role="img" aria-labelledby="title desc">
  <title id="title">Dagger Moth Tattoo Flash</title>
  <desc id="desc">Neo traditional moth with a dagger tattoo flash design.</desc>
  <rect width="640" height="480" fill="#0c0a09"/>
  <g fill="none" stroke="#f8fafc" stroke-linecap="round" stroke-linejoin="round">
    <path d="M320 60v344" stroke-width="10"/>
    <path d="M286 94h68l-34-46-34 46Z" fill="#d6d3d1" stroke-width="5"/>
    <path d="M292 358h56l-28 64-28-64Z" fill="#d6d3d1" stroke-width="5"/>
    <path d="M320 113c-26 44-37 92-31 143 20 18 43 18 62 0 6-51-5-99-31-143Z" fill="#1f2937" stroke-width="5"/>
    <path d="M288 184c-62-67-130-79-204-36 28 83 94 121 204 36Z" fill="#f59e0b" stroke-width="6"/>
    <path d="M352 184c62-67 130-79 204-36-28 83-94 121-204 36Z" fill="#f59e0b" stroke-width="6"/>
    <path d="M294 262c-65 53-121 63-169 28 33-70 89-80 169-28Z" fill="#dc2626" stroke-width="6"/>
    <path d="M346 262c65 53 121 63 169 28-33-70-89-80-169-28Z" fill="#dc2626" stroke-width="6"/>
    <path d="M172 159l70 39M468 159l-70 39M176 287l76-35M464 287l-76-35" stroke-width="5"/>
  </g>
  <circle cx="320" cy="178" r="28" fill="#f8fafc"/>
  <circle cx="320" cy="178" r="12" fill="#111827"/>
</svg>
