<svg xmlns="http://www.w3.org/2000/svg" viewBox="0 0 640 480" role="img" aria-labelledby="title desc">
  <title id="title">Sacred Heart Tattoo Flash</title>
  <desc id="desc">American traditional sacred heart with flame and rays.</desc>
  <rect width="640" height="480" fill="#111111"/>
  <g stroke="#f8fafc" stroke-linecap="round" stroke-linejoin="round">
    <path d="M320 104l18 70 57-45-35 73 78-7-66 43 70 35-80 4 42 68-66-35-18 78-18-78-66 35 42-68-80-4 70-35-66-43 78 7-35-73 57 45 18-70Z" fill="#f59e0b" stroke-width="5"/>
    <path d="M320 386c-97-60-152-117-152-181 0-43 31-77 72-77 35 0 61 20 80 51 19-31 45-51 80-51 41 0 72 34 72 77 0 64-55 121-152 181Z" fill="#dc2626" stroke-width="8"/>
    <path d="M216 211c42 28 90 39 144 35 31-3 58 3 81 18" fill="none" stroke-width="7"/>
    <path d="M252 338c50-29 96-30 136 0" fill="none" stroke-width="7"/>
    <path d="M320 135c-30-34-25-68 0-99 25 31 30 65 0 99Z" fill="#f97316" stroke-width="6"/>
    <path d="M294 118c-26-22-25-48-6-72 18 24 21 49 6 72ZM346 118c26-22 25-48 6-72-18 24-21 49-6 72Z" fill="#facc15" stroke-width="5"/>
  </g>
</svg>
